<svg width="190" height="42" viewBox="0 0 190 42" fill="none" xmlns="http://www.w3.org/2000/svg">
<path d="M19.8617 6.06879C19.8617 6.06879 19.8079 8.42367 20.9921 10.7382C20.9921 10.7382 14.6406 9.58093 11.4245 12.5414L9.39258 11.6936C9.40603 11.6667 11.7071 6.70124 19.8617 6.06879Z" fill="#F34133"/>
<path d="M8.71975 10.967C8.71975 10.967 10.5229 12.4741 13.0796 12.9989C13.0796 12.9989 8.20841 17.2377 8.51791 21.5976L6.60709 22.6607C6.59363 22.6607 4.1311 17.749 8.71975 10.967Z" fill="#2DB473"/>
<path d="M5.46341 22.7953C5.46341 22.7953 7.77792 22.3512 9.78293 20.6826C9.78293 20.6826 10.0117 27.1417 13.5911 29.6446L13.2009 31.8111C13.2009 31.8246 7.83175 30.6404 5.46341 22.7953Z" fill="#1276C5"/>
<path d="M12.4876 32.9011C12.4876 32.9011 13.618 30.8422 13.6314 28.2317C13.6314 28.2317 18.7449 32.1744 22.9567 31.0306L24.3697 32.7127C24.3562 32.7127 20.0367 36.0768 12.4876 32.9011Z" fill="#D6E025"/>
<path d="M24.6658 33.9642C24.6658 33.9642 23.818 31.7708 21.8264 30.0887C21.8264 30.0887 28.1375 28.7161 29.9676 24.7465H32.161C32.161 24.733 31.9726 30.2233 24.6658 33.9642Z" fill="#875E3B"/>
<path d="M33.224 25.1098C33.224 25.1098 30.9498 24.5446 28.42 25.204C28.42 25.204 30.9229 19.2562 28.7295 15.4749C28.7295 15.4615 29.981 13.6852 29.981 13.6718C30.0079 13.6987 34.3678 17.009 33.224 25.1098Z" fill="#323293"/>
<path d="M31.5689 12.6087C31.5689 12.6087 29.5235 14.0889 28.3124 16.6322C28.3124 16.6322 25.1501 10.4287 20.5076 9.6079L20.1578 8.51793L19.9694 7.45486C19.9694 7.45486 25.6615 6.00157 31.5689 12.6087Z" fill="#F7931D"/>
<path d="M14.6271 5.86702C16.2473 5.86702 17.5606 4.55365 17.5606 2.93351C17.5606 1.31338 16.2473 0 14.6271 0C13.007 0 11.6936 1.31338 11.6936 2.93351C11.6936 4.55365 13.007 5.86702 14.6271 5.86702Z" fill="#F34133"/>
<path d="M2.93351 16.3631C4.55365 16.3631 5.86702 15.0497 5.86702 13.4295C5.86702 11.8094 4.55365 10.496 2.93351 10.496C1.31338 10.496 0 11.8094 0 13.4295C0 15.0497 1.31338 16.3631 2.93351 16.3631Z" fill="#2DB473"/>
<path d="M3.714 31.9995C5.33413 31.9995 6.64751 30.6861 6.64751 29.066C6.64751 27.4458 5.33413 26.1324 3.714 26.1324C2.09386 26.1324 0.780487 27.4458 0.780487 29.066C0.780487 30.6861 2.09386 31.9995 3.714 31.9995Z" fill="#1276C5"/>
<path d="M16.6726 41.5401C18.2927 41.5401 19.6061 40.2267 19.6061 38.6066C19.6061 36.9865 18.2927 35.6731 16.6726 35.6731C15.0525 35.6731 13.7391 36.9865 13.7391 38.6066C13.7391 40.2267 15.0525 41.5401 16.6726 41.5401Z" fill="#D6E025"/>
<path d="M31.6765 37.1264C33.2967 37.1264 34.61 35.813 34.61 34.1929C34.61 32.5728 33.2967 31.2594 31.6765 31.2594C30.0564 31.2594 28.743 32.5728 28.743 34.1929C28.743 35.813 30.0564 37.1264 31.6765 37.1264Z" fill="#875E3B"/>
<path d="M40.6566 20.793C41.214 19.2717 40.4325 17.5867 38.9112 17.0294C37.3899 16.472 35.7048 17.2535 35.1475 18.7748C34.5902 20.2961 35.3716 21.9812 36.8929 22.5385C38.4143 23.0958 40.0993 22.3144 40.6566 20.793Z" fill="#323293"/>
<path d="M30.7211 8.74666C32.3412 8.74666 33.6546 7.43329 33.6546 5.81315C33.6546 4.19302 32.3412 2.87964 30.7211 2.87964C29.101 2.87964 27.7876 4.19302 27.7876 5.81315C27.7876 7.43329 29.101 8.74666 30.7211 8.74666Z" fill="#F7931D"/>
<path d="M59.9316 8.48846V22.3342H56.9776V15.6143L55.5795 18.9517H53.3696L51.9715 15.6143V22.3342H49.0174V8.48846H51.9715L54.4745 15.2535L57.0001 8.48846H59.9316Z" fill="white"/>
<path d="M68.884 8.48846V11.2396H64.6897V14.126H68.1624V16.8996H64.6897V19.5831H68.884V22.3567H61.7356V8.51101H68.884V8.48846Z" fill="white"/>
<path d="M74.747 15.0279H78.9639V18.6585C78.9639 19.8762 78.5354 20.8233 77.7011 21.4998C76.8667 22.1763 75.8745 22.5145 74.7245 22.5145C73.5519 22.5145 72.5371 22.1763 71.6802 21.4772C70.8233 20.8007 70.3949 19.8536 70.3949 18.6585V12.1641C70.3949 10.9464 70.8008 9.99929 71.6351 9.32279C72.4469 8.64629 73.4391 8.30804 74.5666 8.30804C75.7167 8.30804 76.7089 8.64629 77.5658 9.34534C78.4227 10.0218 78.8286 10.9689 78.8286 12.1866V12.5474L75.8745 13.1112V12.1641C75.8745 11.8258 75.7392 11.5552 75.4912 11.3523C75.2206 11.1493 74.9274 11.0591 74.5666 11.0591C74.2284 11.0591 73.9578 11.1493 73.7097 11.3523C73.4617 11.5552 73.3489 11.8258 73.3489 12.1866V18.681C73.3489 19.0193 73.4842 19.2899 73.7774 19.4928C74.048 19.6958 74.3862 19.786 74.747 19.786C75.1078 19.786 75.401 19.6958 75.6716 19.4928C75.9196 19.2899 76.0549 19.0193 76.0549 18.6585V17.8016H74.7696V15.0279H74.747Z" fill="white"/>
<path d="M82.8875 8.48846H85.6611L88.7505 22.3342H85.7964L85.5033 20.8684H83.0228L82.7296 22.3342H79.7756L82.8875 8.48846ZM84.2856 14.577L83.5865 18.1173H84.9621L84.2856 14.577Z" fill="white"/>
<path d="M103.949 18.3428V18.6585C103.949 19.8762 103.521 20.8233 102.687 21.4998C101.852 22.1763 100.86 22.5145 99.7099 22.5145C98.5373 22.5145 97.5226 22.1763 96.6657 21.4772C95.8088 20.8007 95.3803 19.8536 95.3803 18.6585V12.1641C95.3803 10.9464 95.7862 9.99929 96.6206 9.32279C97.4324 8.64629 98.4246 8.30804 99.5521 8.30804C100.702 8.30804 101.694 8.64629 102.551 9.34534C103.408 10.0218 103.814 10.9689 103.814 12.1866V12.5474L100.86 13.1112V12.1641C100.86 11.8258 100.725 11.5552 100.477 11.3523C100.206 11.1493 99.9129 11.0591 99.5521 11.0591C99.2138 11.0591 98.9432 11.1493 98.6952 11.3523C98.4471 11.5552 98.3344 11.8258 98.3344 12.1866V18.681C98.3344 19.0193 98.4697 19.2899 98.7628 19.4928C99.0334 19.6958 99.3717 19.786 99.7325 19.786C100.093 19.786 100.386 19.6958 100.657 19.4928C100.905 19.2899 101.04 19.0193 101.04 18.6585V17.6888L103.949 18.3428Z" fill="white"/>
<path d="M105.235 12.1641C105.235 10.9464 105.663 9.99929 106.497 9.32279C107.332 8.64629 108.324 8.30804 109.474 8.30804C110.647 8.30804 111.661 8.64629 112.518 9.34534C113.375 10.0218 113.804 10.9689 113.804 12.1866V18.681C113.804 19.8987 113.375 20.8458 112.541 21.5223C111.706 22.1988 110.714 22.5371 109.564 22.5371C108.392 22.5371 107.377 22.1988 106.52 21.4998C105.663 20.8233 105.235 19.8762 105.235 18.681V12.1641ZM108.189 18.6585C108.189 18.9967 108.324 19.2673 108.617 19.4703C108.888 19.6732 109.226 19.7634 109.587 19.7634C109.948 19.7634 110.241 19.6732 110.511 19.4703C110.759 19.2673 110.895 18.9967 110.895 18.6359V12.1641C110.895 11.8258 110.759 11.5552 110.466 11.3523C110.196 11.1493 109.857 11.0591 109.497 11.0591C109.136 11.0591 108.843 11.1493 108.572 11.3523C108.324 11.5552 108.189 11.8258 108.189 12.1866V18.6585Z" fill="white"/>
<path d="M126.386 8.48846V22.3342H123.432V15.6143L122.034 18.9517H119.824L118.426 15.6143V22.3342H115.472V8.48846H118.426L120.929 15.2535L123.455 8.48846H126.386Z" fill="white"/>
<path d="M131.099 8.48838V18.6584C131.099 18.9967 131.235 19.2673 131.528 19.4702C131.798 19.6732 132.137 19.7634 132.498 19.7634C132.858 19.7634 133.152 19.6732 133.422 19.4702C133.693 19.2673 133.805 18.9967 133.805 18.6359V8.46582H136.737V18.6359C136.737 19.8536 136.308 20.8007 135.474 21.4772C134.64 22.1537 133.648 22.4919 132.498 22.4919C131.325 22.4919 130.31 22.1537 129.453 21.4546C128.596 20.7781 128.168 19.831 128.168 18.6359V8.46582H131.099V8.48838Z" fill="white"/>
<path d="M143.75 8.48846H146.704V22.3342H143.75L141.427 16.2231V22.3342H138.473V8.48846H141.427L143.75 14.5995V8.48846Z" fill="white"/>
<path d="M148.531 8.48846H151.485V22.3342H148.531V8.48846Z" fill="white"/>
<path d="M153.311 8.48846H156.265H157.483C158.656 8.48846 159.67 8.82671 160.527 9.50321C161.384 10.1797 161.813 11.1268 161.813 12.3445V18.4781C161.813 19.6958 161.384 20.6429 160.55 21.3194C159.715 21.9959 158.723 22.3342 157.573 22.3342H153.356V8.48846H153.311ZM156.265 19.5831H157.551C157.911 19.5831 158.205 19.4929 158.475 19.2899C158.723 19.1095 158.859 18.8389 158.859 18.4781V12.3445C158.859 12.0063 158.723 11.7357 158.453 11.5327C158.182 11.3298 157.866 11.2396 157.483 11.2396H156.265V19.5831Z" fill="white"/>
<path d="M165.736 8.48846H168.51L171.599 22.3342H168.645L168.352 20.8684H165.872L165.578 22.3342H162.647L165.736 8.48846ZM167.134 14.577L166.435 18.1173H167.811L167.134 14.577Z" fill="white"/>
<path d="M172.749 8.48846H175.703H176.921C178.094 8.48846 179.108 8.82671 179.965 9.50321C180.822 10.1797 181.251 11.1268 181.251 12.3445V18.4781C181.251 19.6958 180.822 20.6429 179.988 21.3194C179.153 21.9959 178.161 22.3342 177.011 22.3342H172.794V8.48846H172.749ZM175.703 19.5831H176.989C177.349 19.5831 177.643 19.4929 177.913 19.2899C178.161 19.1095 178.297 18.8389 178.297 18.4781V12.3445C178.297 12.0063 178.161 11.7357 177.891 11.5327C177.62 11.3298 177.304 11.2396 176.921 11.2396H175.703V19.5831Z" fill="white"/>
<path d="M190 8.48846V11.2396H185.806V14.126H189.278V16.8996H185.806V19.5831H190V22.3567H182.852V8.51101H190V8.48846Z" fill="white"/>
<path d="M64.6671 29.5275H65.1858V33.1806H66.9898V33.6316H64.6671V29.5275Z" fill="white"/>
<path d="M70.0791 31.557C70.0791 30.2491 70.8007 29.4373 71.838 29.4373C72.8753 29.4373 73.5969 30.2491 73.5969 31.557C73.5969 32.8649 72.8753 33.6993 71.838 33.6993C70.8007 33.6993 70.0791 32.8649 70.0791 31.557ZM73.0557 31.557C73.0557 30.5423 72.5822 29.9109 71.838 29.9109C71.0939 29.9109 70.6203 30.5423 70.6203 31.557C70.6203 32.5718 71.0939 33.2483 71.838 33.2483C72.5822 33.2483 73.0557 32.5718 73.0557 31.557Z" fill="white"/>
<path d="M77.9491 29.9335H76.7088V29.4825H79.708V29.9335H78.4677V33.6091H77.9491V29.9335Z" fill="white"/>
<path d="M83.0453 29.5275H85.4131V29.9785H83.564V31.2639H85.1199V31.7149H83.564V33.2032H85.4807V33.6542H83.0453V29.5275Z" fill="white"/>
<path d="M88.9535 29.5275H90.2389C91.0732 29.5275 91.6821 29.8207 91.6821 30.6776C91.6821 31.4894 91.0732 31.8953 90.2389 31.8953H89.4722V33.6316H88.9535V29.5275ZM90.1712 31.4443C90.8026 31.4443 91.1634 31.1962 91.1634 30.655C91.1634 30.1138 90.8026 29.9334 90.1712 29.9334H89.4722V31.4668H90.1712V31.4443ZM90.1487 31.7374L90.5546 31.4668L91.8174 33.6091H91.2311L90.1487 31.7374Z" fill="white"/>
<path d="M95.1321 29.5275H95.6508V33.6316H95.1321V29.5275Z" fill="white"/>
<path d="M100.228 29.5275H100.815L102.213 33.6316H101.649L100.928 31.3315C100.77 30.8805 100.657 30.4295 100.522 29.956H100.499C100.364 30.4295 100.251 30.8805 100.093 31.3315L99.3716 33.6316H98.8304L100.228 29.5275ZM99.5745 31.9629H101.469V32.3688H99.5745V31.9629Z" fill="white"/>
<path d="M108.978 33.0904L109.294 32.7296C109.587 33.0453 109.993 33.2483 110.421 33.2483C110.962 33.2483 111.278 32.9777 111.278 32.5718C111.278 32.1433 110.985 32.008 110.601 31.8502L110.015 31.5796C109.632 31.4217 109.181 31.1286 109.181 30.5197C109.181 29.8883 109.722 29.4373 110.466 29.4373C110.962 29.4373 111.391 29.6403 111.684 29.956L111.413 30.2942C111.165 30.0462 110.85 29.9109 110.489 29.9109C110.038 29.9109 109.722 30.1364 109.722 30.5197C109.722 30.9256 110.083 31.0609 110.399 31.1962L110.985 31.4443C111.458 31.6472 111.842 31.9404 111.842 32.5492C111.842 33.2032 111.301 33.7218 110.444 33.7218C109.835 33.6993 109.316 33.4738 108.978 33.0904Z" fill="white"/>
<path d="M115.224 29.5275H117.592V29.9785H115.743V31.2639H117.299V31.7149H115.743V33.2032H117.66V33.6542H115.224V29.5275Z" fill="white"/>
<path d="M121.132 29.5275H121.764L122.553 31.7149C122.643 31.9855 122.756 32.2786 122.846 32.5718H122.869C122.959 32.2786 123.049 31.9855 123.162 31.7149L123.951 29.5275H124.582V33.6316H124.086V31.3766C124.086 31.0158 124.131 30.5197 124.154 30.1589H124.131L123.816 31.106L123.049 33.2257H122.711L121.944 31.106L121.628 30.1589H121.606C121.628 30.5197 121.674 31.0158 121.674 31.3766V33.6316H121.2V29.5275H121.132Z" fill="white"/>
<path d="M131.844 33.0904L132.159 32.7296C132.452 33.0453 132.858 33.2483 133.287 33.2483C133.828 33.2483 134.144 32.9777 134.144 32.5718C134.144 32.1433 133.851 32.008 133.467 31.8502L132.881 31.557C132.498 31.3992 132.047 31.106 132.047 30.4972C132.047 29.8658 132.588 29.4148 133.332 29.4148C133.828 29.4148 134.256 29.6177 134.55 29.9334L134.279 30.2717C134.031 30.0236 133.715 29.8883 133.354 29.8883C132.903 29.8883 132.588 30.1138 132.588 30.4972C132.588 30.9031 132.949 31.0384 133.264 31.1737L133.851 31.4218C134.324 31.6247 134.707 31.9178 134.707 32.5267C134.707 33.1806 134.166 33.6993 133.309 33.6993C132.723 33.6993 132.204 33.4738 131.844 33.0904Z" fill="white"/>
<path d="M138.112 29.5275H140.48V29.9785H138.631V31.2639H140.187V31.7149H138.631V33.2032H140.548V33.6542H138.112V29.5275Z" fill="white"/>
<path d="M143.773 31.557C143.773 30.2266 144.562 29.4148 145.667 29.4148C146.23 29.4148 146.614 29.6628 146.862 29.9109L146.569 30.2491C146.366 30.0236 146.095 29.8658 145.689 29.8658C144.855 29.8658 144.336 30.4972 144.336 31.5345C144.336 32.5718 144.832 33.2032 145.712 33.2032C146.005 33.2032 146.298 33.113 146.456 32.9551V31.8953H145.577V31.4668H146.93V33.2032C146.659 33.4738 146.208 33.6768 145.667 33.6768C144.539 33.6993 143.773 32.91 143.773 31.557Z" fill="white"/>
<path d="M150.492 29.5275H151.778C152.612 29.5275 153.221 29.8207 153.221 30.6776C153.221 31.4894 152.612 31.8953 151.778 31.8953H151.011V33.6316H150.492V29.5275ZM151.688 31.4443C152.319 31.4443 152.68 31.1962 152.68 30.655C152.68 30.1138 152.319 29.9334 151.688 29.9334H150.989V31.4668H151.688V31.4443ZM151.665 31.7374L152.071 31.4668L153.334 33.6091H152.747L151.665 31.7374Z" fill="white"/>
<path d="M156.649 29.5275H159.016V29.9785H157.167V31.2639H158.723V31.7149H157.167V33.2032H159.084V33.6542H156.649V29.5275Z" fill="white"/>
<path d="M162.557 29.5275H163.594C164.857 29.5275 165.533 30.2717 165.533 31.557C165.533 32.8649 164.857 33.6316 163.617 33.6316H162.557V29.5275ZM163.549 33.1806C164.519 33.1806 164.992 32.5718 164.992 31.5345C164.992 30.4972 164.519 29.9334 163.549 29.9334H163.075V33.1806H163.549Z" fill="white"/>
<path d="M168.78 31.557C168.78 30.2491 169.502 29.4373 170.539 29.4373C171.577 29.4373 172.298 30.2491 172.298 31.557C172.298 32.8649 171.577 33.6993 170.539 33.6993C169.502 33.6993 168.78 32.8649 168.78 31.557ZM171.757 31.557C171.757 30.5423 171.284 29.9109 170.539 29.9109C169.795 29.9109 169.322 30.5423 169.322 31.557C169.322 32.5718 169.795 33.2483 170.539 33.2483C171.284 33.2483 171.757 32.5718 171.757 31.557Z" fill="white"/>
</svg>
