<svg width="24" height="24" viewBox="0 0 24 24" fill="none" xmlns="http://www.w3.org/2000/svg">
<path d="M12.4232 6.85996L13.7627 9.85136C13.7951 9.92396 13.848 9.98689 13.9158 10.0334C13.9836 10.0798 14.0636 10.1081 14.1472 10.1151L17.5757 10.3928C17.6666 10.3997 17.7534 10.4316 17.825 10.4847C17.8965 10.5378 17.9497 10.6096 17.9777 10.6909C18.0057 10.7723 18.0074 10.8597 17.9824 10.942C17.9574 11.0242 17.907 11.0977 17.8375 11.1531L15.2364 13.2794C15.1732 13.3314 15.1262 13.3985 15.1004 13.4736C15.0746 13.5487 15.071 13.6289 15.09 13.7057L15.8695 16.869C15.8901 16.9516 15.8843 17.038 15.8529 17.1176C15.8214 17.1972 15.7656 17.2663 15.6925 17.3163C15.6195 17.3664 15.5323 17.3952 15.4418 17.3991C15.3514 17.4031 15.2617 17.382 15.184 17.3385L12.2376 15.6634C12.166 15.6226 12.0838 15.6011 12 15.6011C11.9162 15.6011 11.834 15.6226 11.7624 15.6634L8.81604 17.3385C8.7383 17.382 8.64862 17.4031 8.55818 17.3991C8.46775 17.3952 8.38055 17.3664 8.30746 17.3163C8.23436 17.2663 8.17861 17.1972 8.14713 17.1176C8.11566 17.038 8.10986 16.9516 8.13047 16.869L8.91002 13.7057C8.92897 13.6289 8.92536 13.5487 8.89958 13.4736C8.87379 13.3985 8.82679 13.3314 8.76357 13.2794L6.16255 11.1531C6.09301 11.0977 6.04256 11.0242 6.0176 10.942C5.99263 10.8597 5.99426 10.7723 6.02229 10.6909C6.05031 10.6096 6.10347 10.5378 6.17503 10.4847C6.2466 10.4316 6.33335 10.3997 6.42432 10.3928L9.85276 10.1151C9.9364 10.1081 10.0164 10.0798 10.0842 10.0334C10.152 9.98689 10.2049 9.92396 10.2373 9.85136L11.5768 6.85996C11.6126 6.78262 11.6717 6.71677 11.7469 6.67051C11.8221 6.62425 11.9101 6.59961 12 6.59961C12.0899 6.59961 12.1779 6.62425 12.2531 6.67051C12.3283 6.71677 12.3874 6.78262 12.4232 6.85996Z" stroke="#40AD1C" stroke-width="1.5" stroke-linecap="round" stroke-linejoin="round"/>
</svg>
