<svg width="15" height="17" viewBox="0 0 15 17" fill="none" xmlns="http://www.w3.org/2000/svg">
<path d="M7.59961 8.79883C9.80898 8.79883 11.5996 7.0082 11.5996 4.79883C11.5996 2.58945 9.80898 0.798828 7.59961 0.798828C5.39023 0.798828 3.59961 2.58945 3.59961 4.79883C3.59961 7.0082 5.39023 8.79883 7.59961 8.79883ZM10.3996 9.79883H9.87773C9.18398 10.1176 8.41211 10.2988 7.59961 10.2988C6.78711 10.2988 6.01836 10.1176 5.32148 9.79883H4.79961C2.48086 9.79883 0.599609 11.6801 0.599609 13.9988V15.2988C0.599609 16.127 1.27148 16.7988 2.09961 16.7988H13.0996C13.9277 16.7988 14.5996 16.127 14.5996 15.2988V13.9988C14.5996 11.6801 12.7184 9.79883 10.3996 9.79883Z" fill="#052535"/>
</svg>
